<svg xmlns="http://www.w3.org/2000/svg" xmlns:xlink="http://www.w3.org/1999/xlink" viewBox="0 0 110.429 20.989" overflow="visible">
	<path d="M 106.253 20.522 L 110.429 20.522 L 102.515 0.467 L 97.885 0.467 L 89.764 20.522 L 93.939 20.522 L 95.423 16.721 L 104.769 16.721 Z M 100.093 4.762 L 103.395 13.213 L 96.798 13.213 Z M 13.746 0.467 L 0 0.467 L 0 20.522 L 4.164 20.522 L 4.164 13.213 L 13.838 13.213 C 18.646 13.213 21.608 10.638 21.608 6.854 C 21.608 3.07 18.526 0.461 13.746 0.467 Z M 13.274 9.659 L 4.164 9.659 L 4.164 4.014 L 13.28 4.014 C 16.035 4.014 17.381 5.071 17.381 6.848 C 17.381 8.631 16.029 9.659 13.274 9.659 Z M 40.709 3.677 C 44.557 3.677 47.68 6.736 47.68 10.492 C 47.68 14.247 44.551 17.306 40.709 17.306 L 33.664 17.306 C 29.816 17.306 26.693 14.247 26.693 10.492 C 26.693 6.736 29.822 3.677 33.664 3.677 Z M 40.709 0 L 33.664 0 C 27.734 0 22.931 4.695 22.931 10.492 C 22.931 16.288 27.734 20.983 33.664 20.983 L 40.709 20.983 C 46.639 20.983 51.441 16.288 51.441 10.492 C 51.441 4.695 46.639 0 40.709 0 Z M 68.357 11.616 C 67.661 10.812 66.815 10.199 65.838 9.8 C 64.871 9.401 63.6 9.002 62.082 8.602 C 60.972 8.304 60.103 8.035 59.494 7.81 C 58.895 7.59 58.389 7.298 57.987 6.949 C 57.59 6.606 57.4 6.168 57.4 5.611 C 57.4 4.807 57.711 4.228 58.355 3.829 C 59.005 3.424 59.85 3.222 60.868 3.222 C 62.036 3.222 63.008 3.531 63.744 4.133 C 64.48 4.734 64.871 5.617 64.912 6.753 L 64.912 6.854 L 68.961 6.854 L 68.961 6.747 C 68.915 5.353 68.552 4.133 67.862 3.132 C 67.178 2.125 66.229 1.344 65.044 0.81 C 63.859 0.27 62.49 0 60.972 0 C 59.534 0 58.217 0.231 57.072 0.675 C 55.916 1.124 55.007 1.788 54.369 2.643 C 53.731 3.497 53.403 4.537 53.403 5.724 C 53.403 7.011 53.748 8.063 54.432 8.844 C 55.111 9.62 55.928 10.205 56.865 10.593 C 57.791 10.969 59.028 11.363 60.535 11.762 C 61.65 12.043 62.536 12.302 63.169 12.527 C 63.79 12.746 64.308 13.055 64.71 13.455 C 65.101 13.843 65.303 14.326 65.303 14.9 C 65.303 15.518 65.147 16.035 64.842 16.44 C 64.538 16.851 64.089 17.16 63.502 17.368 C 62.91 17.582 62.203 17.688 61.409 17.688 C 60.609 17.688 59.827 17.537 59.177 17.227 C 58.533 16.929 58.015 16.485 57.642 15.917 C 57.268 15.349 57.066 14.68 57.049 13.927 L 57.049 13.213 L 52.943 13.213 L 52.943 13.933 C 52.966 15.383 53.345 16.654 54.081 17.705 C 54.812 18.757 55.83 19.578 57.101 20.14 C 58.372 20.702 59.81 20.989 61.386 20.989 C 62.847 20.989 64.198 20.741 65.406 20.258 C 66.62 19.769 67.597 19.06 68.328 18.138 C 69.058 17.216 69.426 16.097 69.426 14.81 C 69.415 13.516 69.058 12.426 68.357 11.616 Z M 75.454 20.516 L 71.497 20.516 L 71.497 0.467 L 75.454 0.467 L 75.454 9.659 L 84.392 9.659 L 84.392 0.467 L 88.349 0.467 L 88.349 20.516 L 84.392 20.516 L 84.392 13.218 L 75.454 13.218 Z" fill="rgb(35,34,34)"></path>
</svg>