<?xml version="1.0" standalone="no"?>
<!DOCTYPE svg PUBLIC "-//W3C//DTD SVG 20010904//EN"
 "http://www.w3.org/TR/2001/REC-SVG-20010904/DTD/svg10.dtd">
<svg version="1.0" xmlns="http://www.w3.org/2000/svg"
 width="512.000000pt" height="512.000000pt" viewBox="0 0 512.000000 512.000000"
 preserveAspectRatio="xMidYMid meet">
<metadata>
Created by potrace 1.14, written by Peter Selinger 2001-2017
</metadata>
<g transform="translate(0.000000,512.000000) scale(0.100000,-0.100000)"
fill="#000000" stroke="none">
<path d="M2379 5116 c-2 -2 -40 -6 -83 -10 -44 -4 -82 -9 -85 -11 -4 -2 -34
-7 -66 -10 -109 -13 -387 -87 -490 -130 -16 -7 -55 -23 -85 -35 -548 -222
-1030 -674 -1301 -1219 -65 -132 -131 -293 -144 -351 -1 -8 -12 -44 -24 -79
-34 -105 -72 -294 -88 -451 -10 -85 -10 -415 -1 -510 22 -234 98 -530 193
-755 28 -66 132 -272 153 -302 10 -15 39 -59 63 -98 179 -285 480 -578 788
-769 201 -124 515 -260 693 -301 141 -31 210 -46 248 -51 25 -3 54 -8 65 -10
88 -19 468 -26 600 -11 642 69 1219 361 1645 833 159 176 277 349 383 560 106
212 190 452 222 633 3 19 7 37 9 40 3 5 9 42 22 131 20 146 26 455 12 600 -68
682 -409 1313 -938 1739 -196 158 -405 281 -665 391 -142 61 -419 133 -595
156 -25 3 -56 8 -70 10 -29 6 -456 15 -461 10z"/>
</g>
</svg>
